PathFileType	4	(X/Y/Z)	C:/Users/beibeiliu/ov580/test_trc/User2\sequence.7_training_dense_left.trc
DataRate	CameraRate	NumFrames	NumMarkers	Units	OrigDataRate	OrigDataStartFrame	OrigNumFrames
120	120	11	19	mm	120	29	113
Frame#	Time	ThumbCMC			ThumbMCP			ThumbIP			ThumbTip			IndexMCP			IndexPIP			IndexTip			MiddleMCP			MiddlePIP			MiddleTip			RingMCP			RingPIP			RingTip			PinkyMCP			PinkyPIP			PinkyTip			BackHand1			BackHand2			BackHand3	
		X0	Y0	Z0	X1	Y1	Z1	X2	Y2	Z2	X3	Y3	Z3	X4	Y4	Z4	X5	Y5	Z5	X6	Y6	Z6	X7	Y7	Z7	X8	Y8	Z8	X9	Y9	Z9	X10	Y10	Z10	X11	Y11	Z11	X12	Y12	Z12	X13	Y13	Z13	X14	Y14	Z14	X15	Y15	Z15	X16	Y16	Z16	X17	Y17	Z17	X18	Y18	Z18	
28	0.233333	-307.825	51.8411	19.6672	-293.01	75.8719	11.0645	-266.73	94.3362	-6.95038	-240.221	92.9629	-14.6586	-265.128	19.9291	-45.4209	-241.863	22.5196	-66.2379	-206.991	37.5216	-64.2438	-254.531	-5.0279	-40.0013	-220.022	-5.27493	-61.4775	-190.885	11.6948	-52.028	-239.257	-22.3552	-23.8862	-210.928	-19.5746	-39.6115	-186.414	0.782417	-35.0735	-231.829	-28.7003	6.007	-198.467	-28.1422	-2.72839	-176.476	-7.17936	-2.43811	-277.563	-19.7478	14.3157	-305.493	-18.9954	40.2003	-307.459	7.00636	10.6152	
29	0.241667	-324.306	45.6577	21.7266	-314.761	72.8146	5.19631	-300.227	99.8871	-14.0487	-270.398	105.056	-23.856	-275.688	23.6673	-44.9358	-255.629	33.278	-70.6815	-229.848	58.4578	-73.0407	-254.896	0.462576	-41.65	-226.498	10.425	-63.9946	-201.105	41.4333	-61.6315	-239.557	-6.08682	-25.0761	-213.549	1.37414	-42.1144	-191.725	26.3466	-41.7964	-228.228	-6.73822	2.81501	-196.902	0.806073	-9.19594	-182.098	26.7468	-12.1309	-279.316	-9.7922	16.3493	-298.043	-16.6277	39.7784	-311.776	4.65346	11.0839	
30	0.25	-331.75	36.3267	17.9683	-336.253	67.1461	-0.22513	-322.168	90.4993	-16.2663	-296.145	100.802	-29.9218	-290.771	23.701	-54.2647	-272.281	32.6182	-74.7131	-250.209	63.7826	-80.5314	-264.231	5.50524	-43.7388	-238.425	17.5764	-71.3038	-220.077	49.2074	-72.9476	-244.514	1.19775	-31.7824	-220.175	14.1365	-49.8807	-210.953	46.2397	-56.2301	-228.485	6.56699	-3.56174	-204.618	20.1046	-15.6903	-192.531	51.3024	-23.9422	-274.401	-10.2139	12.4322	-293.243	-18.1806	40.7357	-312.649	-1.57294	10.363	
31	0.258333	-342.609	29.8478	20.1786	-351.243	61.044	1.12352	-340.431	83.072	-18.9767	-318.673	97.6758	-36.9762	-304.402	16.1986	-56.4879	-295.064	28.4231	-82.5488	-278.706	59.2123	-89.9845	-278.743	2.13368	-54.7818	-259.197	16.7891	-81.878	-245.27	51.6322	-88.4468	-255.433	1.31553	-36.185	-239.521	12.2807	-59.7004	-229.569	46.5673	-68.6281	-237.999	9.15232	-10.0936	-214.081	26.3517	-29.1696	-209.722	52.119	-37.3199	-281.627	-10.6433	8.69707	-296.732	-18.0302	38.8579	-322.024	-3.06442	8.31979	
32	0.266667	-349.561	25.9549	21.6331	-359.375	53.2707	4.06669	-355.567	78.2758	-21.3598	-331.063	84.6972	-39.6178	-327.135	5.89403	-52.6436	-316.938	14.9905	-85.2586	-302.229	44.9714	-94.462	-296.775	-8.36898	-54.268	-282.709	1.11386	-88.2591	-272.278	37.5782	-97.2677	-275.394	-8.34633	-44.5959	-259.59	0.306232	-70.3094	-253.171	33.7245	-80.8039	-249.411	2.25318	-22.5815	-235.53	17.9399	-47.6752	-231.691	47.8069	-57.1345	-289.226	-15.8141	5.05945	-300.445	-20.6466	38.2643	-324.691	-9.79465	13.5152	
33	0.275	-360.783	19.4002	26.8852	-369.848	45.3607	4.25311	-366.744	65.8172	-27.2926	-346.33	68.4844	-44.5718	-344.765	-12.614	-49.2867	-342.139	-7.38769	-82.4287	-330.611	23.6067	-95.0339	-322.079	-27.246	-55.6172	-312.988	-20.6826	-89.2454	-303.402	12.9905	-102.459	-297.217	-26.3926	-49.3297	-287.09	-19.798	-76.1783	-281.832	14.3688	-90.1267	-267.589	-15.9281	-34.7151	-259.829	-1.99142	-60.9521	-254.584	23.2327	-74.4478	-305.37	-26.148	4.87261	-307.354	-28.7538	35.9377	-337.183	-20.8937	17.0891	
34	0.283333	-365.287	13.2253	30.4192	-376.844	39.0467	7.02478	-376.843	53.2025	-24.1956	-358.279	50.4884	-48.8249	-368.047	-27.8369	-40.2573	-368.033	-23.9995	-77.1694	-356.983	0.160601	-91.1343	-346.011	-46.3061	-49.5981	-340.6	-40.5608	-86.1737	-331.643	-4.94384	-100.709	-316.882	-46.1767	-44.6901	-315.99	-40.9741	-78.2164	-309.427	-8.59694	-93.3452	-288.777	-33.1207	-32.8383	-283.294	-26.4794	-68.0166	-284.172	-2.00164	-84.9809	-318.338	-37.5655	8.31802	-314.31	-35.4835	43.0666	-346.664	-28.986	23.799	
35	0.291667	-368.787	13.405	33.3244	-379.114	33.8497	3.88374	-380.569	45.8357	-25.4079	-365.188	41.0048	-50.9044	-385.399	-37.2323	-33.0417	-391.904	-33.2819	-69.1709	-377.52	-11.144	-84.5567	-360.376	-58.878	-43.0732	-364.264	-53.9283	-79.2567	-354.53	-22.2025	-97.9158	-333.595	-59.7325	-41.0353	-335.439	-57.2644	-75.3035	-331.485	-28.493	-91.2085	-305.041	-51.6965	-37.2928	-302.554	-46.2777	-70.0102	-300.401	-25.1304	-87.0025	-326.695	-47.8858	9.14833	-319.685	-42.65	42.9275	-353.694	-30.8594	29.7619	
36	0.3	-369.665	15.502	32.7742	-377.534	34.5098	3.04497	-380.818	46.2147	-26.9185	-371.443	39.4646	-57.8022	-393.926	-39.6058	-28.3288	-403.727	-40.3763	-58.3687	-387.555	-16.7811	-79.6065	-376.113	-60.9767	-33.5637	-383.916	-62.0718	-69.3266	-366.783	-33.8901	-92.102	-348.952	-65.2915	-34.6531	-353.958	-68.0029	-66.1266	-348.467	-34.9977	-88.361	-321.65	-60.7212	-35.3512	-321.746	-60.2301	-66.2236	-317.539	-38.2934	-88.3839	-332.164	-50.3412	13.6433	-326.219	-44.5415	43.2077	-359.063	-30.763	32.3712	
37	0.308333	-367.531	17.8792	29.3363	-374.322	38.2298	-0.162835	-376.33	50.3344	-28.7948	-370.86	41.3329	-59.7059	-407.306	-36.0373	-26.2126	-416.258	-33.6261	-56.1311	-399.074	-11.4959	-75.9819	-388.332	-59.2471	-27.5488	-398.239	-61.8403	-64.0003	-379.546	-36.3946	-86.3285	-364.369	-68.758	-30.3988	-374.48	-68.4602	-64.2997	-359.693	-41.2956	-85.8167	-334.171	-66.6391	-27.1633	-337.658	-71.7802	-61.6766	-339.241	-51.7979	-82.9959	-345.286	-48.7546	18.0336	-330.516	-47.1019	44.9752	-369.048	-26.5187	34.2618	
38	0.316667	-362.491	22.3278	28.4305	-363.989	48.3334	-0.0420036	-366.419	59.4318	-32.7351	-360.195	46.346	-58.4865	-413.944	-19.4941	-19.7362	-427.298	-14.3597	-52.6158	-404.008	-2.83809	-75.3275	-406.715	-44.8164	-23.1333	-415.343	-48.3436	-60.6731	-389.939	-25.6709	-84.0687	-386.1	-60.776	-27.7033	-393.823	-62.5767	-59.1504	-377.571	-39.2019	-80.7257	-355.609	-67.0639	-27.4879	-360.239	-72.8792	-59.0739	-353.248	-49.2705	-83.8992	-353.641	-48.498	17.0561	-343.214	-42.459	45.3109	-374.048	-19.1272	36.8663	
